<?xml version="1.0" encoding="utf-8"?>
<!-- Generator: Adobe Illustrator 16.0.0, SVG Export Plug-In . SVG Version: 6.00 Build 0)  -->
<!DOCTYPE svg PUBLIC "-//W3C//DTD SVG 1.1//EN" "http://www.w3.org/Graphics/SVG/1.1/DTD/svg11.dtd">
<svg version="1.1" id="Layer_1" xmlns="http://www.w3.org/2000/svg" xmlns:xlink="http://www.w3.org/1999/xlink" x="0px" y="0px"
	 width="100px" height="100px" viewBox="0 0 100 100" enable-background="new 0 0 100 100" xml:space="preserve">
<path fill="#231F20" d="M50,98.314c-26.716,0-48.452-21.736-48.452-48.455C1.549,23.146,23.284,1.41,50,1.41
	s48.452,21.735,48.452,48.451C98.452,76.578,76.717,98.314,50,98.314 M50,8.718c-22.687,0-41.144,18.457-41.144,41.143
	c0,22.688,18.457,41.145,41.144,41.145c22.686,0,41.143-18.457,41.143-41.145C91.145,27.175,72.688,8.718,50,8.718"/>
<path fill="#231F20" d="M49.225,67.691h2.416h6.69h3.063v-9.94c0-1.858-1.576-3.438-3.436-3.438H42.721
	c-1.858,0-3.437,1.58-3.437,3.438v9.94h3.251H49.225z"/>
<path fill="#231F20" d="M64.518,43.909v-2.044c0-1.486-0.931-2.88-2.416-3.251l-21.738-5.76c-1.767-0.557-3.624,0.557-4.089,2.323
	c-0.463,1.764,0.559,3.622,2.416,4.086l16.163,4.366l-1.856,1.115c-1.021,0.558-1.672,1.672-1.672,2.879v6.689h6.69v-4.737
	l4.922-2.879C63.959,46.045,64.518,45.023,64.518,43.909"/>
<path fill="#231F20" d="M48.909,54.312v-6.967c0-1.486-1.022-2.879-2.508-3.344l-5.297-1.3c-1.764-0.464-3.623,0.557-4.087,2.323
	c-0.465,1.857,0.651,3.622,2.414,4.087l2.788,0.743v4.458H48.909L48.909,54.312z"/>
<path fill="#231F20" d="M46.692,24.293l10.126,2.788c1.486,0.372,3.623-0.557,4.086-2.322c0.559-1.765-0.557-3.623-2.321-4.089
	l-10.219-2.787c-1.765-0.557-3.623,0.558-4.087,2.323C43.813,21.97,44.928,23.829,46.692,24.293"/>
<path fill="#231F20" d="M40.257,30.832l21.647,5.853c1.486,0.372,3.623-0.65,4.087-2.415c0.465-1.765-0.558-3.624-2.322-4.088
	l-21.738-5.76c-1.766-0.556-3.624,0.558-4.088,2.323C37.378,28.51,38.4,30.368,40.257,30.832"/>
<path fill="#231F20" d="M56.924,74.243c0.559-0.197,0.993-0.679,1.094-1.308c0.14-0.873-0.414-1.675-1.258-1.879
	c0.637-0.152,1.146-0.671,1.258-1.361c0.037-0.233,0.024-0.461-0.029-0.676H43.294c0.006,0.002,0.011,0.004,0.016,0.004
	c-0.636,0.153-1.146,0.672-1.256,1.362c-0.135,0.845,0.381,1.625,1.178,1.859c-0.558,0.194-0.993,0.676-1.093,1.305
	c-0.146,0.918,0.472,1.771,1.387,1.916l3.596,0.574h-5.169l5.013,4.604h6.138l5.017-4.604h-0.015
	C58.206,75.219,57.7,74.473,56.924,74.243"/>
</svg>
