<svg id="8df71a5b-d6ea-4c47-8570-5c7e8dc9e0ee" data-name="Capa 1" xmlns="http://www.w3.org/2000/svg" width="100" height="100" viewBox="0 0 100 100"><defs><style>.\33 d22b70e-b5b3-424f-bd10-f953b7bd982b{fill:#fff;}</style></defs><title>Edificios</title><rect class="3d22b70e-b5b3-424f-bd10-f953b7bd982b" x="-0.1" y="-0.1" width="100.2" height="100.24"/><path d="M56.8,10a3.8,3.8,0,0,1,2.5,2,4.9,4.9,0,0,1,.4,1.7q0,14,0,28c0,.3.1.6-.4.6H54.7V33.8H47.1v.8c0,2.4,0,4.8,0,7.2a.9.9,0,0,1-.7,1,4.8,4.8,0,0,0-3.2,4.9c0,6,0,12,0,18,0,.3,0,.5,0,.9H33.4c0,.3,0,.6,0,.8q0,10.8,0,21.7c0,.3,0,.5,0,.8H20a11.2,11.2,0,0,1-1.6-.9,3.8,3.8,0,0,1-1.3-3.3q0-35.8,0-71.6c0-.2,0-.5,0-.7a3.4,3.4,0,0,1,1.2-2.6A12.2,12.2,0,0,1,20,10Zm-27,56.9H22.9c-.6,0-.7.2-.7.7q0,4.7,0,9.4c0,.5.2.7.7.7h6.3c.6,0,.7-.2.7-.7,0-3.1,0-6.3,0-9.4Zm0-49.7H22.9c-.5,0-.7.1-.7.7q0,4.7,0,9.4c0,.5.1.7.7.7h6.9Zm5.1,5.3c0,1.6,0,3.2,0,4.8s.1.7.6.7h6.4c.4,0,.6-.1.6-.5q0-4.9,0-9.8c0-.4-.1-.5-.5-.5H35.4c-.5,0-.6.2-.6.6S34.9,20.9,34.9,22.5Zm12.3-5.3v.2c0,3.4,0,6.7,0,10.1,0,.5.3.5.6.5h6.3c.6,0,.7-.2.7-.7,0-3.2,0-6.3,0-9.5,0-.2,0-.4,0-.6ZM29.8,33.8H22.6c-.4,0-.4.3-.4.6,0,3.2,0,6.4,0,9.6,0,.5.2.6.6.6h7ZM42.4,44.5V33.8H35.6c-.6,0-.7.1-.7.7,0,3.1,0,6.3,0,9.4,0,.2,0,.4,0,.6ZM29.8,61.9v-.3c0-3.3,0-6.6,0-10,0-.5-.2-.5-.6-.5H22.9c-.5,0-.6.1-.6.6q0,4.8,0,9.6c0,.5.2.6.6.6h6.9Zm12.6,0v-.2c0-3.4,0-6.7,0-10.1a.6.6,0,0,0-.4-.4H35.4c-.4,0-.5.1-.5.5,0,3.3,0,6.5,0,9.8,0,.5.2.5.6.5h6.9Z"/><path d="M49.1,90h-.4a2.2,2.2,0,0,1-1.9-2.6c0-13.1,0-26.2,0-39.2,0-1.8.7-2.5,2.7-2.9h30a7.5,7.5,0,0,1,2.4.5,1.6,1.6,0,0,1,1,1.6c0,.3,0,.6,0,1q0,19.4,0,38.7c0,1.8-.3,2.3-2.1,2.9H69.3c0-4.2,0-8.4,0-12.6,0-.5-.3-.5-.7-.5H61.6c-1,0-1,0-1,1q0,6.1,0,12.1Zm5.3-31.5H51.7c-.4,0-.6.1-.6.5s0,3.4,0,5.1.1.5.5.5h5.5c.4,0,.5-.1.5-.5s0-3.4,0-5.1-.2-.5-.5-.5Zm7.4,6h6.3v-6H61.9Zm16.8-6h-6c-.1,0-.4.3-.4.4,0,1.7,0,3.4,0,5.2s.1.5.5.4h5.6c.1,0,.4-.2.4-.3C78.7,62.3,78.6,60.4,78.6,58.5ZM54.4,83.1H57c.5,0,.6-.1.6-.6s0-3.3,0-4.9-.2-.5-.6-.5H51.7c-.4,0-.5.1-.5.5s0,3.4,0,5,.2.5.5.5ZM51.2,49.2c0,1.9,0,3.8,0,5.6s.3.4.6.4h4.6c1.5,0,1.2.2,1.3-1.2s0-3.1,0-4.7Zm21.2,28h-.1c0,1.8,0,3.6,0,5.4s.3.4.6.4h5.3c.5,0,.6-.2.6-.6s0-3.2,0-4.8,0-.4,0-.6Zm6.3-8.9H72.2c0,1.9,0,3.8,0,5.6,0,.1.3.4.4.4h5.6c.1,0,.4-.2.4-.3C78.7,72.1,78.6,70.2,78.6,68.3ZM61.9,74.2h6.3V68.3H61.9Zm6.4-19v-6H61.9v6ZM51.2,68.3c0,1.9,0,3.8,0,5.7,0,.1.3.3.5.3H57c.4,0,.6-.1.6-.6s0-2.6,0-3.9,0-1,0-1.5ZM72.2,49.2c0,1.9,0,3.7,0,5.6s.2.4.5.4h5.4c.5,0,.6-.2.6-.6s0-3.3,0-4.9a4.5,4.5,0,0,0-.1-.5Z"/></svg>